<svg width="600" height="170" viewBox="0 0 583 156" fill="none" xmlns="http://www.w3.org/2000/svg">
<path d="M42.9258 155.613C36.5456 155.613 30.7839 154.767 25.6406 153.074C20.4974 151.447 16.0703 149.07 12.3594 145.945C8.58333 142.82 5.6862 139.109 3.66797 134.812C1.71484 130.516 0.738281 125.763 0.738281 120.555C0.738281 116.193 1.42188 112.091 2.78906 108.25C4.22135 104.344 6.20703 100.958 8.74609 98.0938C11.2852 95.2292 14.2474 93.0156 17.6328 91.4531C21.0182 89.8255 24.599 89.0117 28.375 89.0117C33.0625 89.0117 37.0013 90.1836 40.1914 92.5273C43.3815 94.8711 45.3672 98.0938 46.1484 102.195C39.1823 102.195 33.6484 104.051 29.5469 107.762C27.5938 109.52 26.0638 111.668 24.957 114.207C23.9154 116.746 23.3945 119.546 23.3945 122.605C23.3945 128.465 25.0872 133.12 28.4727 136.57C31.9232 139.956 36.5456 141.648 42.3398 141.648C45.7904 141.648 49.013 141.03 52.0078 139.793C55.0026 138.491 57.6068 136.733 59.8203 134.52C62.0339 132.306 63.7266 129.669 64.8984 126.609C66.1354 123.484 66.7539 120.164 66.7539 116.648C66.7539 110.138 64.5404 103.367 60.1133 96.3359C58.3555 93.6016 56.4023 90.9323 54.2539 88.3281C52.1706 85.6589 49.2409 82.1432 45.4648 77.7812C42.0794 73.875 39.2474 70.4896 36.9688 67.625C34.6901 64.7604 32.6393 61.8307 30.8164 58.8359C26.3893 51.6094 24.1758 44.513 24.1758 37.5469C24.1758 32.3385 25.2826 27.5208 27.4961 23.0938C29.7096 18.6016 32.8672 14.6953 36.9688 11.375C41.0703 8.05469 45.8555 5.48307 51.3242 3.66016C56.793 1.83724 62.6849 0.925781 69 0.925781C79.7422 0.925781 88.3685 3.46484 94.8789 8.54297C98.0039 11.0169 100.38 13.9792 102.008 17.4297C103.701 20.8802 104.547 24.7214 104.547 28.9531C104.547 34.487 103.147 39.0117 100.348 42.5273C99.0456 44.2201 97.418 45.5221 95.4648 46.4336C93.5768 47.3451 91.5586 47.8008 89.4102 47.8008C84.3971 47.8008 80.3281 45.7174 77.2031 41.5508C79.7422 39.7279 81.7279 37.319 83.1602 34.3242C84.6576 31.2643 85.4062 28.0091 85.4062 24.5586C85.4062 20.2617 84.1367 16.8763 81.5977 14.4023C79.0586 11.8633 75.5755 10.5938 71.1484 10.5938C68.4792 10.5938 66.0052 11.082 63.7266 12.0586C61.513 13.0352 59.625 14.4349 58.0625 16.2578C56.4349 18.0807 55.1654 20.2292 54.2539 22.7031C53.4076 25.1771 52.9844 27.8789 52.9844 30.8086C52.9844 34.9753 53.9609 38.9792 55.9141 42.8203C57.8672 46.6615 60.6667 50.6654 64.3125 54.832C67.5677 58.6732 71.0833 62.4818 74.8594 66.2578C83.6484 75.3724 89.8659 84.2591 93.5117 92.918C95.6602 98.0612 96.7344 103.725 96.7344 109.91C96.7344 116.421 95.3997 122.475 92.7305 128.074C90.0612 133.608 86.2526 138.426 81.3047 142.527C76.3568 146.694 70.5951 149.917 64.0195 152.195C57.444 154.474 50.4128 155.613 42.9258 155.613Z" stroke="#4AF0A0" stroke-width="6"/>
<path d="M132.086 153.172C124.469 153.172 118.316 150.796 113.629 146.043C108.16 140.444 105.426 132.111 105.426 121.043C105.426 116.355 105.914 111.408 106.891 106.199C107.802 100.991 109.169 95.8477 110.992 90.7695C115.159 79.3112 120.855 70.0664 128.082 63.0352C136.415 55.0273 146.018 51.0234 156.891 51.0234C162.294 51.0234 166.331 51.9674 169 53.8555C171.734 55.6784 173.102 58.1198 173.102 61.1797V62.6445L175.25 52H204.059L189.703 119.969C189.117 121.922 188.824 124.07 188.824 126.414C188.824 132.143 191.559 135.008 197.027 135.008C200.673 135.008 203.993 133.152 206.988 129.441C209.527 126.316 211.611 121.889 213.238 116.16H221.637C218.056 126.316 213.727 134.357 208.648 140.281C204.352 145.164 199.501 148.68 194.098 150.828C190.126 152.391 185.927 153.172 181.5 153.172C175.836 153.172 171.311 151.642 167.926 148.582C164.605 145.457 162.587 140.867 161.871 134.812C158.095 140.151 154.124 144.318 149.957 147.312C144.618 151.219 138.661 153.172 132.086 153.172ZM145.074 133.836C146.572 133.836 148.134 133.445 149.762 132.664C151.454 131.883 153.082 130.776 154.645 129.344C158.16 125.958 160.504 121.564 161.676 116.16L171.246 71.043C171.246 70.3919 171.083 69.6432 170.758 68.7969C170.497 67.8854 170.107 67.0391 169.586 66.2578C168.023 64.3698 165.842 63.4258 163.043 63.4258C160.374 63.4258 157.77 64.3047 155.23 66.0625C152.757 67.8203 150.413 70.2617 148.199 73.3867C144.293 79.0508 141.07 86.4401 138.531 95.5547C137.359 99.5911 136.48 103.595 135.895 107.566C135.309 111.473 135.016 115.021 135.016 118.211C135.016 124.852 136.253 129.344 138.727 131.688C139.573 132.599 140.517 133.185 141.559 133.445C142.6 133.706 143.772 133.836 145.074 133.836Z" stroke="#4AF0A0" stroke-width="6"/>
<path d="M285.504 153.172C277.236 153.172 271.116 150.828 267.145 146.141C263.694 142.104 261.969 136.928 261.969 130.613C261.969 127.618 262.327 124.135 263.043 120.164C263.824 116.193 264.964 111.082 266.461 104.832C267.958 98.4518 269.065 93.3737 269.781 89.5977C270.562 85.7565 270.953 82.4362 270.953 79.6367C270.953 72.8008 268.544 69.3828 263.727 69.3828C260.341 69.3828 257.216 71.1732 254.352 74.7539C251.943 77.8138 249.859 82.1758 248.102 87.8398L234.527 152H205.719L226.91 52H255.719L253.57 62.3516C257.477 57.9896 261.676 54.9297 266.168 53.1719C269.488 51.8698 273.069 51.2188 276.91 51.2188C283.681 51.2188 289.02 52.9766 292.926 56.4922C297.092 60.3333 299.176 66.0951 299.176 73.7773C299.176 78.3997 298.329 84.4219 296.637 91.8438C296.181 93.9922 295.432 97.2148 294.391 101.512C292.503 108.738 291.135 114.5 290.289 118.797C289.768 121.531 289.508 123.745 289.508 125.438C289.508 128.107 290.094 130.19 291.266 131.688C292.503 133.12 294.586 133.836 297.516 133.836C301.487 133.836 304.84 132.208 307.574 128.953C309.658 126.479 311.904 122.215 314.312 116.16H322.711C317.763 130.809 311.513 141.062 303.961 146.922C298.622 151.089 292.47 153.172 285.504 153.172Z" stroke="#4AF0A0" stroke-width="6"/>
<path d="M338.336 153.172C330.719 153.172 324.566 150.796 319.879 146.043C314.41 140.444 311.676 132.111 311.676 121.043C311.676 116.355 312.164 111.408 313.141 106.199C314.052 100.991 315.419 95.8477 317.242 90.7695C321.409 79.3112 327.105 70.0664 334.332 63.0352C342.665 55.0273 352.268 51.0234 363.141 51.0234C368.544 51.0234 372.581 51.9674 375.25 53.8555C377.984 55.6784 379.352 58.1198 379.352 61.1797V62.6445L381.5 52H410.309L395.953 119.969C395.367 121.922 395.074 124.07 395.074 126.414C395.074 132.143 397.809 135.008 403.277 135.008C406.923 135.008 410.243 133.152 413.238 129.441C415.777 126.316 417.861 121.889 419.488 116.16H427.887C424.306 126.316 419.977 134.357 414.898 140.281C410.602 145.164 405.751 148.68 400.348 150.828C396.376 152.391 392.177 153.172 387.75 153.172C382.086 153.172 377.561 151.642 374.176 148.582C370.855 145.457 368.837 140.867 368.121 134.812C364.345 140.151 360.374 144.318 356.207 147.312C350.868 151.219 344.911 153.172 338.336 153.172ZM351.324 133.836C352.822 133.836 354.384 133.445 356.012 132.664C357.704 131.883 359.332 130.776 360.895 129.344C364.41 125.958 366.754 121.564 367.926 116.16L377.496 71.043C377.496 70.3919 377.333 69.6432 377.008 68.7969C376.747 67.8854 376.357 67.0391 375.836 66.2578C374.273 64.3698 372.092 63.4258 369.293 63.4258C366.624 63.4258 364.02 64.3047 361.48 66.0625C359.007 67.8203 356.663 70.2617 354.449 73.3867C350.543 79.0508 347.32 86.4401 344.781 95.5547C343.609 99.5911 342.73 103.595 342.145 107.566C341.559 111.473 341.266 115.021 341.266 118.211C341.266 124.852 342.503 129.344 344.977 131.688C345.823 132.599 346.767 133.185 347.809 133.445C348.85 133.706 350.022 133.836 351.324 133.836Z" stroke="#4AF0A0" stroke-width="6"/>
<path d="M491.754 153.172C483.486 153.172 477.366 150.828 473.395 146.141C469.944 142.104 468.219 136.928 468.219 130.613C468.219 127.618 468.577 124.135 469.293 120.164C470.074 116.193 471.214 111.082 472.711 104.832C474.208 98.4518 475.315 93.3737 476.031 89.5977C476.812 85.7565 477.203 82.4362 477.203 79.6367C477.203 72.8008 474.794 69.3828 469.977 69.3828C466.591 69.3828 463.466 71.1732 460.602 74.7539C458.193 77.8138 456.109 82.1758 454.352 87.8398L440.777 152H411.969L440.973 15.9648L470.562 11.9609L459.82 62.3516C463.727 57.9896 467.926 54.9297 472.418 53.1719C475.738 51.8698 479.319 51.2188 483.16 51.2188C489.931 51.2188 495.27 52.9766 499.176 56.4922C503.342 60.3333 505.426 66.0951 505.426 73.7773C505.426 78.3997 504.579 84.4219 502.887 91.8438C502.431 93.9922 501.682 97.2148 500.641 101.512C498.753 108.738 497.385 114.5 496.539 118.797C496.018 121.531 495.758 123.745 495.758 125.438C495.758 128.107 496.344 130.19 497.516 131.688C498.753 133.12 500.836 133.836 503.766 133.836C507.737 133.836 511.09 132.208 513.824 128.953C515.908 126.479 518.154 122.215 520.562 116.16H528.961C524.013 130.809 517.763 141.062 510.211 146.922C504.872 151.089 498.72 153.172 491.754 153.172Z" stroke="#4AF0A0" stroke-width="6"/>
<path d="M553.961 41.1602C551.812 41.1602 549.762 40.7695 547.809 39.9883C545.855 39.1419 544.163 38.0026 542.73 36.5703C541.298 35.2031 540.159 33.543 539.312 31.5898C538.531 29.6367 538.141 27.5859 538.141 25.4375C538.141 23.2891 538.531 21.2383 539.312 19.2852C540.159 17.332 541.298 15.6068 542.73 14.1094C544.163 12.612 545.855 11.4727 547.809 10.6914C549.762 9.84505 551.812 9.42188 553.961 9.42188C556.109 9.42188 558.16 9.84505 560.113 10.6914C562.066 11.4727 563.792 12.612 565.289 14.1094C566.786 15.6068 567.926 17.332 568.707 19.2852C569.553 21.2383 569.977 23.2891 569.977 25.4375C569.977 27.5859 569.553 29.6367 568.707 31.5898C567.926 33.543 566.786 35.2031 565.289 36.5703C563.792 38.0026 562.066 39.1419 560.113 39.9883C558.16 40.7695 556.109 41.1602 553.961 41.1602ZM540.387 153.172C534.007 153.172 528.961 151.284 525.25 147.508C521.083 143.341 519 137.254 519 129.246C519 125.47 519.521 121.108 520.562 116.16L534.137 52H562.945L548.59 119.969C548.069 121.661 547.809 123.81 547.809 126.414C547.809 129.148 548.427 131.069 549.664 132.176C550.966 133.283 553.049 133.836 555.914 133.836C557.867 133.836 559.755 133.413 561.578 132.566C563.466 131.655 565.191 130.418 566.754 128.855C569.944 125.665 572.353 121.434 573.98 116.16H582.379C578.798 126.251 574.306 134.292 568.902 140.281C564.345 145.164 559.202 148.68 553.473 150.828C549.306 152.391 544.944 153.172 540.387 153.172Z" stroke="#4AF0A0" stroke-width="6"/>
</svg>
